<?xml version="1.0" standalone="no"?>
<!DOCTYPE svg PUBLIC "-//W3C//DTD SVG 20010904//EN"
 "http://www.w3.org/TR/2001/REC-SVG-20010904/DTD/svg10.dtd">
<svg version="1.0" xmlns="http://www.w3.org/2000/svg"
 width="767.000000pt" height="497.000000pt" viewBox="0 0 767.000000 497.000000"
 preserveAspectRatio="xMidYMid meet">

<g transform="translate(0.000000,497.000000) scale(0.100000,-0.100000)"
fill="#000000" stroke="none">
<path d="M0 2485 l0 -2485 3835 0 3835 0 0 2485 0 2485 -3835 0 -3835 0 0
-2485z m1489 2415 c-73 -236 -103 -702 -102 -1595 1 -741 21 -1455 68 -2370
21 -417 34 -695 38 -813 l3 -102 -338 0 -338 0 -35 70 c-215 426 -359 1032
-405 1700 -11 157 -12 724 -1 830 l6 65 14 -100 c26 -197 119 -532 274 -995
l92 -274 7 314 c3 173 13 394 22 490 91 966 318 1893 689 2813 21 50 25 28 6
-33z m5203 -863 c40 -14 96 -30 123 -36 71 -17 148 -71 190 -134 28 -42 51
-109 114 -327 43 -151 77 -278 75 -281 -2 -3 -81 -28 -175 -55 l-171 -49 5
-335 c4 -184 9 -346 12 -360 5 -22 -3 -31 -62 -73 -246 -176 -548 -234 -865
-166 -46 10 -49 13 -43 36 19 77 46 325 56 512 12 236 8 301 -19 301 -20 0
-343 68 -348 73 -8 8 200 587 228 635 48 79 117 135 246 197 l114 55 21 -27
c38 -49 80 -83 125 -100 36 -14 49 -14 85 -3 51 15 116 66 159 126 17 24 38
42 44 40 7 -3 46 -16 86 -29z m-1454 -463 l22 -15 0 -489 c0 -474 -1 -490 -19
-500 -27 -14 -3675 -14 -3702 0 -18 10 -19 26 -19 500 l0 489 22 15 c20 14
212 16 1848 16 1636 0 1828 -2 1848 -16z m-2827 -1361 c30 -18 59 -67 59 -100
0 -26 -35 -80 -61 -93 -12 -7 -36 -12 -54 -12 -43 0 -72 17 -95 55 -24 39 -25
59 -4 103 29 60 97 81 155 47z m2407 -49 c26 -18 29 -60 5 -86 -15 -17 -62
-18 -1064 -18 -939 0 -1049 2 -1063 16 -21 20 -20 63 1 86 15 17 61 18 1057
18 927 0 1044 -2 1064 -16z m-2407 -261 c30 -18 59 -67 59 -100 0 -26 -35 -80
-61 -93 -12 -7 -36 -12 -54 -12 -43 0 -72 17 -95 55 -24 39 -25 59 -4 103 29
60 97 81 155 47z m2407 -49 c26 -18 29 -60 5 -86 -15 -17 -62 -18 -1064 -18
-939 0 -1049 2 -1063 16 -21 20 -20 63 1 86 15 17 61 18 1057 18 927 0 1044
-2 1064 -16z m-2409 -259 c28 -14 61 -68 61 -100 0 -25 -27 -72 -52 -89 -12
-9 -41 -16 -63 -16 -47 0 -79 19 -100 60 -19 37 -19 54 1 96 28 59 94 80 153
49z m2409 -51 c26 -18 29 -60 5 -86 -15 -17 -62 -18 -1064 -18 -939 0 -1049 2
-1063 16 -21 20 -20 63 1 86 15 17 61 18 1057 18 927 0 1044 -2 1064 -16z
m-2409 -259 c28 -14 61 -68 61 -100 0 -25 -27 -72 -52 -89 -29 -20 -97 -20
-126 0 -25 17 -52 64 -52 89 0 31 32 86 59 100 34 18 75 19 110 0z m2409 -51
c26 -18 29 -60 5 -86 -15 -17 -62 -18 -1064 -18 -939 0 -1049 2 -1063 16 -21
20 -20 63 1 86 15 17 61 18 1057 18 927 0 1044 -2 1064 -16z m-2409 -259 c28
-14 61 -68 61 -100 0 -25 -27 -72 -52 -89 -29 -20 -97 -20 -126 0 -25 17 -52
64 -52 89 0 31 32 86 59 100 34 18 75 19 110 0z m2409 -51 c26 -18 29 -60 5
-86 -15 -17 -62 -18 -1064 -18 -939 0 -1049 2 -1063 16 -21 20 -20 63 1 86 15
17 61 18 1057 18 927 0 1044 -2 1064 -16z m0 -310 c26 -18 29 -60 5 -86 -15
-17 -62 -18 -1064 -18 -939 0 -1049 2 -1063 16 -21 20 -20 63 1 86 15 17 61
18 1057 18 927 0 1044 -2 1064 -16z"/>
<path d="M2295 2175 c-60 -59 -2 -161 80 -141 97 24 79 166 -20 166 -25 0 -44
-8 -60 -25z"/>
<path d="M2295 1865 c-60 -59 -2 -161 80 -141 97 24 79 166 -20 166 -25 0 -44
-8 -60 -25z"/>
<path d="M2291 1554 c-70 -89 52 -195 129 -112 26 28 26 78 -1 112 -16 21 -29
26 -64 26 -35 0 -48 -5 -64 -26z"/>
<path d="M2291 1244 c-70 -89 52 -195 129 -112 26 28 26 78 -1 112 -16 21 -29
26 -64 26 -35 0 -48 -5 -64 -26z"/>
<path d="M2291 934 c-70 -89 52 -195 129 -112 26 28 26 78 -1 112 -16 21 -29
26 -64 26 -35 0 -48 -5 -64 -26z"/>
</g>
</svg>
